<svg xmlns="http://www.w3.org/2000/svg" width="30" height="22.174" viewBox="0 0 30 22.174">
  <g id="Discord" transform="translate(-19.84 -69.436)">
    <path id="Path_5" data-name="Path 5" d="M45.682,71.895c-2.6-2.089-6.7-2.443-6.878-2.456a.647.647,0,0,0-.645.382,4.289,4.289,0,0,0-.2.543A16.016,16.016,0,0,1,43.7,72.422a.652.652,0,1,1-.688,1.108,16.674,16.674,0,0,0-16.335,0,.652.652,0,0,1-.688-1.108,16.007,16.007,0,0,1,5.734-2.056,5.383,5.383,0,0,0-.2-.545.643.643,0,0,0-.647-.382c-.176.013-4.283.367-6.914,2.484-1.373,1.271-4.122,8.7-4.122,15.122a.653.653,0,0,0,.087.324c1.9,3.332,7.069,4.2,8.249,4.242h.02a.652.652,0,0,0,.527-.268L29.915,89.7a12.665,12.665,0,0,1-4.955-2.326.653.653,0,0,1,.864-.978c.038.036,3.065,2.6,9.016,2.6s8.988-2.578,9.018-2.6a.652.652,0,0,1,.861.978A12.665,12.665,0,0,1,39.764,89.7l1.192,1.641a.651.651,0,0,0,.527.268h.02c1.18-.038,6.354-.91,8.249-4.242a.652.652,0,0,0,.087-.324C49.84,80.622,47.091,73.194,45.682,71.895ZM30.6,84.436a2.632,2.632,0,0,1,0-5.217,2.632,2.632,0,0,1,0,5.217Zm8.478,0a2.632,2.632,0,1,1,2.283-2.608A2.461,2.461,0,0,1,39.079,84.436Z" fill="#fff"/>
  </g>
</svg>
