<svg id="Skype" xmlns="http://www.w3.org/2000/svg" width="30" height="30" viewBox="0 0 30 30">
  <path id="Path_6" data-name="Path 6" d="M8.569,0A8.525,8.525,0,0,0,0,8.456a8.324,8.324,0,0,0,1.069,4.069A14.148,14.148,0,0,0,15.15,29.287a14.646,14.646,0,0,0,2.419-.187,8.666,8.666,0,0,0,3.862.9A8.525,8.525,0,0,0,30,21.544a8.238,8.238,0,0,0-.806-3.562,13.878,13.878,0,0,0,.3-2.831A14.259,14.259,0,0,0,15.15,1.013a14.857,14.857,0,0,0-2.231.169A8.59,8.59,0,0,0,8.569,0Zm6.487,5.625a10.956,10.956,0,0,1,3.206.412,7.088,7.088,0,0,1,2.269,1.106,4.95,4.95,0,0,1,1.35,1.481,3.265,3.265,0,0,1,.431,1.556,1.819,1.819,0,0,1-.581,1.294,1.891,1.891,0,0,1-1.406.581,1.756,1.756,0,0,1-1.181-.356,4.309,4.309,0,0,1-.825-1.069A4.485,4.485,0,0,0,17.1,9.112a3.987,3.987,0,0,0-2.306-.506,4.353,4.353,0,0,0-2.381.563,1.554,1.554,0,0,0-.844,1.312,1.182,1.182,0,0,0,.281.787,2.391,2.391,0,0,0,.806.6,6.16,6.16,0,0,0,1.106.431c.382.1,1.034.267,1.912.469,1.111.237,2.133.485,3.037.769a9.847,9.847,0,0,1,2.344,1.069,4.67,4.67,0,0,1,1.556,1.613,4.744,4.744,0,0,1,.544,2.381,5.073,5.073,0,0,1-.956,3.019,6.271,6.271,0,0,1-2.794,2.1,11.382,11.382,0,0,1-4.294.731A10.547,10.547,0,0,1,10.2,23.437,6.423,6.423,0,0,1,7.931,21.45a4.238,4.238,0,0,1-.881-2.438,1.7,1.7,0,0,1,.581-1.275,2.025,2.025,0,0,1,1.425-.525,1.855,1.855,0,0,1,1.219.412,3.073,3.073,0,0,1,.806,1.163,6.613,6.613,0,0,0,.787,1.369,3.013,3.013,0,0,0,1.144.881,4.8,4.8,0,0,0,2.006.356,4.851,4.851,0,0,0,2.756-.713,1.993,1.993,0,0,0,1.031-1.688,1.683,1.683,0,0,0-.544-1.294,3.762,3.762,0,0,0-1.463-.788c-.626-.19-1.465-.4-2.513-.619a20.506,20.506,0,0,1-3.6-1.069,5.971,5.971,0,0,1-2.363-1.706,4.154,4.154,0,0,1-.9-2.7,4.391,4.391,0,0,1,.937-2.756,5.772,5.772,0,0,1,2.663-1.819A11.79,11.79,0,0,1,15.056,5.625Z" fill="#fff"/>
</svg>
